<?xml version="1.0" standalone="no"?>
<!DOCTYPE svg PUBLIC "-//W3C//DTD SVG 20010904//EN"
 "http://www.w3.org/TR/2001/REC-SVG-20010904/DTD/svg10.dtd">
<svg version="1.0" xmlns="http://www.w3.org/2000/svg"
 width="640.000000pt" height="450.000000pt" viewBox="0 0 640.000000 450.000000"
 preserveAspectRatio="xMidYMid meet">

<g transform="translate(0.000000,450.000000) scale(0.100000,-0.100000)"
fill="#000000" stroke="none">
<path d="M4022 4399 c-142 -24 -330 -111 -460 -214 -213 -169 -362 -465 -362
-720 l0 -75 73 0 c185 1 361 85 531 254 196 198 297 415 300 650 1 125 5 120
-82 105z"/>
<path d="M3940 3379 c-111 -10 -191 -31 -440 -116 -167 -57 -238 -77 -275 -76
-35 0 -123 25 -290 81 -291 97 -340 107 -499 99 -442 -20 -829 -334 -980 -792
-130 -397 -87 -915 120 -1425 115 -282 268 -529 482 -776 157 -181 334 -284
488 -284 64 0 186 31 333 85 194 70 272 87 406 87 129 1 227 -20 390 -82 353
-134 541 -104 771 125 162 160 333 403 445 630 65 133 130 301 120 310 -3 4
-21 13 -38 20 -48 20 -160 95 -223 149 -254 216 -374 553 -315 887 43 250 167
440 390 599 87 63 87 56 -16 165 -182 192 -422 294 -744 318 -27 2 -84 0 -125
-4z"/>
</g>
</svg>
